<svg xmlns="http://www.w3.org/2000/svg" xmlns:xlink="http://www.w3.org/1999/xlink" fill="none" version="1.1" width="70" height="70" viewBox="0 0 70 70"><defs><filter id="master_svg0_9_24504" filterUnits="objectBoundingBox" color-interpolation-filters="sRGB" x="-20" y="-16" width="70" height="70"><feFlood flood-opacity="0" result="BackgroundImageFix"/><feColorMatrix in="SourceAlpha" type="matrix" values="0 0 0 0 0 0 0 0 0 0 0 0 0 0 0 0 0 0 127 0"/><feOffset dy="4" dx="0"/><feGaussianBlur stdDeviation="5"/><feColorMatrix type="matrix" values="0 0 0 0 0 0 0 0 0 0 0 0 0 0 0 0 0 0 0.3019607961177826 0"/><feBlend mode="normal" in2="BackgroundImageFix" result="effect1_dropShadow"/><feBlend mode="normal" in="SourceGraphic" in2="effect1_dropShadow" result="shape"/></filter><clipPath id="master_svg1_9_24504"><rect x="20" y="16" width="30" height="30" rx="0"/></clipPath></defs><g filter="url(#master_svg0_9_24504)"><g clip-path="url(#master_svg1_9_24504)"><g><path d="M33.16030244140625,18.85388303125C33.72190244140625,18.53769203125,34.35550244140625,18.37158203125,35.00000244140625,18.37158203125C35.644502441406246,18.37158203125,36.27810244140625,18.53769203125,36.839702441406246,18.85388303125C37.40140244140625,19.17007603125,37.87200244140625,19.62568203125,38.20620244140625,20.17673203125C38.20620244140625,20.17673203125,38.20990244140625,20.18266203125,38.20990244140625,20.18266203125C38.20990244140625,20.18266203125,48.79740244140625,37.85768203125,48.79740244140625,37.85768203125C48.79740244140625,37.85768203125,48.80750244140625,37.87498203125,48.80750244140625,37.87498203125C49.13500244140625,38.44198203125,49.30820244140625,39.084882031250004,49.310002441406255,39.73968203125C49.31190244140625,40.39448203125,49.14230244140625,41.03828203125,48.81800244140625,41.607182031250005C48.49370244140625,42.176082031250004,48.02610244140625,42.65008203125,47.46180244140625,42.982182031250005C46.897502441406246,43.31418203125,46.25600244140625,43.49268203125,45.60130244140625,43.49998203125C45.60130244140625,43.49998203125,45.58750244140625,43.50008203125,45.58750244140625,43.50008203125C45.58750244140625,43.50008203125,24.39879244140625,43.49998203125,24.39879244140625,43.49998203125C23.74402244140625,43.492882031250005,23.10258244140625,43.31418203125,22.53824244140625,42.982182031250005C21.97390244140625,42.65008203125,21.50634144140625,42.176082031250004,21.18208744140625,41.607182031250005C20.85783344140625,41.03828203125,20.68818378140625,40.39448203125,20.69001714460625,39.73968203125C20.69185058140625,39.084882031250004,20.86510344140625,38.44198203125,21.19253744140625,37.87498203125C21.19253744140625,37.87498203125,21.20269244140625,37.85768203125,21.20269244140625,37.85768203125C21.20269244140625,37.85768203125,31.79380244140625,20.17672203125,31.79380244140625,20.17672203125C32.12800244140625,19.62567203125,32.598702441406246,19.17007603125,33.16030244140625,18.85388303125C33.16030244140625,18.85388303125,33.16030244140625,18.85388303125,33.16030244140625,18.85388303125ZM35.00000244140625,20.87158203125C34.78530244140625,20.87158203125,34.57400244140625,20.92696203125,34.386802441406246,21.03234203125C34.200402441406254,21.13727203125,34.04410244140625,21.28824203125,33.93280244140625,21.47080203125C33.93280244140625,21.47080203125,23.35339244140625,39.13228203125,23.35339244140625,39.13228203125C23.24691244140625,39.31958203125,23.19061244140625,39.53118203125,23.19000244140625,39.74668203125C23.18940244140625,39.96498203125,23.24594244140625,40.17958203125,23.35403244140625,40.36918203125C23.46211244140625,40.55888203125,23.61796244140625,40.71678203125,23.80608244140625,40.82748203125C23.99255244140625,40.93718203125,24.20426244140625,40.99658203125,24.42053244140625,40.99998203125C24.42053244140625,40.99998203125,45.57950244140625,40.99998203125,45.57950244140625,40.99998203125C45.79580244140625,40.99658203125,46.007502441406245,40.93718203125,46.194002441406255,40.82748203125C46.382102441406246,40.71678203125,46.537902441406246,40.55888203125,46.64600244140625,40.36918203125C46.754102441406246,40.17958203125,46.810602441406246,39.96498203125,46.810002441406255,39.74668203125C46.80950244140625,39.53118203125,46.75310244140625,39.31958203125,46.64670244140625,39.13228203125C46.64670244140625,39.13228203125,36.06880244140625,21.47329203125,36.06880244140625,21.47329203125C36.068302441406246,21.47247203125,36.06780244140625,21.47163203125,36.06720244140625,21.47080203125C35.95590244140625,21.28824203125,35.79960244140625,21.13727203125,35.61320244140625,21.03234203125C35.42610244140625,20.92696203125,35.21490244140625,20.87158203125,35.00000244140625,20.87158203125C35.00000244140625,20.87158203125,35.00000244140625,20.87158203125,35.00000244140625,20.87158203125ZM35.00000244140625,26.00000203125C35.69040244140625,26.00000203125,36.25000244140625,26.55966203125,36.25000244140625,27.25000203125C36.25000244140625,27.25000203125,36.25000244140625,32.24998203125,36.25000244140625,32.24998203125C36.25000244140625,32.94028203125,35.69040244140625,33.49998203125,35.00000244140625,33.49998203125C34.30960244140625,33.49998203125,33.75000244140625,32.94028203125,33.75000244140625,32.24998203125C33.75000244140625,32.24998203125,33.75000244140625,27.25000203125,33.75000244140625,27.25000203125C33.75000244140625,26.55966203125,34.30960244140625,26.00000203125,35.00000244140625,26.00000203125C35.00000244140625,26.00000203125,35.00000244140625,26.00000203125,35.00000244140625,26.00000203125ZM33.75000244140625,37.24998203125C33.75000244140625,36.55968203125,34.30960244140625,35.99998203125,35.00000244140625,35.99998203125C35.00000244140625,35.99998203125,35.01250244140625,35.99998203125,35.01250244140625,35.99998203125C35.70290244140625,35.99998203125,36.26250244140625,36.55968203125,36.26250244140625,37.24998203125C36.26250244140625,37.940382031249996,35.70290244140625,38.49998203125,35.01250244140625,38.49998203125C35.01250244140625,38.49998203125,35.00000244140625,38.49998203125,35.00000244140625,38.49998203125C34.30960244140625,38.49998203125,33.75000244140625,37.940382031249996,33.75000244140625,37.24998203125C33.75000244140625,37.24998203125,33.75000244140625,37.24998203125,33.75000244140625,37.24998203125Z" fill-rule="evenodd" fill="#FF0303" fill-opacity="1"/></g></g></g></svg>
