<svg t="1672123236242" class="icon" viewBox="0 0 1024 1024" version="1.1" xmlns="http://www.w3.org/2000/svg" width="200" height="200"><path d="M938.666667 1024H512a85.333333 85.333333 0 0 1-85.333333-85.333333v-85.333334a85.333333 85.333333 0 0 1 85.333333-85.333333h149.333333c-48.426667-68.693333-106.666667-162.133333-106.666666-216.362667a170.666667 170.666667 0 0 1 341.333333 0c0 54.058667-58.112 147.669333-106.666667 216.362667H938.666667a85.333333 85.333333 0 0 1 85.333333 85.333333v85.333334a85.333333 85.333333 0 0 1-85.333333 85.333333z m-128-469.333333a85.333333 85.333333 0 0 0-170.666667 0c0 47.146667 85.333333 170.666667 85.333333 170.666666s85.333333-123.52 85.333334-170.666666z m128 327.125333a31.786667 31.786667 0 0 0-34.133334-28.458667h-358.4a31.786667 31.786667 0 0 0-34.133333 28.458667v28.416a31.786667 31.786667 0 0 0 34.133333 28.458667h358.4a31.786667 31.786667 0 0 0 34.133334-28.458667v-28.416zM858.666667 85.333333H85.333333v810.666667h258.645334v85.333333H85.333333a85.333333 85.333333 0 0 1-85.333333-85.333333V85.333333a85.333333 85.333333 0 0 1 85.333333-85.333333h773.333334a85.333333 85.333333 0 0 1 85.333333 85.333333v256h-85.333333V85.333333zM214.656 256a42.666667 42.666667 0 0 1 42.666667-42.666667h386.688a42.666667 42.666667 0 0 1 0 85.333334H257.322667a42.666667 42.666667 0 0 1-42.666667-42.666667z m258.688 256H257.322667a42.666667 42.666667 0 0 1 0-85.333333h216.021333a42.666667 42.666667 0 0 1 0 85.333333z m-258.688 170.666667a42.666667 42.666667 0 0 1 42.666667-42.666667h129.322666a42.666667 42.666667 0 0 1 0 85.333333H257.322667a42.666667 42.666667 0 0 1-42.666667-42.666666z"></path></svg>
