<svg t="1672124483015" class="icon" viewBox="0 0 1024 1024" version="1.1" xmlns="http://www.w3.org/2000/svg" p-id="28118" width="200" height="200"><path d="M969.634909 727.458909v215.086546a34.909091 34.909091 0 0 1-69.818182 0v-215.086546c0-26.205091-21.317818-47.476364-47.522909-47.476364h-146.385454a47.476364 47.476364 0 0 0-47.476364 47.476364v215.086546a34.909091 34.909091 0 0 1-34.909091 34.90909c-0.372364 0-0.651636-0.186182-0.977454-0.186181s-0.651636 0.186182-0.977455 0.186181a34.909091 34.909091 0 0 1-34.909091-34.90909v-274.013091a106.030545 106.030545 0 0 0-105.984-105.890909H230.167273a106.123636 106.123636 0 0 0-105.984 105.890909v274.013091a34.909091 34.909091 0 0 1-69.818182 0v-274.013091a175.941818 175.941818 0 0 1 175.802182-175.755637h250.461091c81.733818 0 150.062545 56.32 169.611636 132.049455a116.130909 116.130909 0 0 1 55.621818-14.661818h146.385455a117.434182 117.434182 0 0 1 117.387636 117.294545zM167.889455 234.123636C167.889455 130.699636 252.043636 46.545455 355.421091 46.545455s187.531636 84.154182 187.531636 187.578181c0 103.424-84.154182 187.531636-187.531636 187.531637S167.889455 337.547636 167.889455 234.123636z m69.818181 0c0 64.930909 52.782545 117.713455 117.713455 117.713455s117.713455-52.829091 117.713454-117.713455c0-64.930909-52.829091-117.76-117.713454-117.76S237.707636 169.192727 237.707636 234.123636z m389.12 148.712728a140.706909 140.706909 0 0 1 140.567273-140.567273 140.753455 140.753455 0 0 1 140.613818 140.567273 140.753455 140.753455 0 0 1-140.613818 140.613818 140.706909 140.706909 0 0 1-140.567273-140.613818z m69.818182 0c0 39.005091 31.744 70.795636 70.749091 70.795636 39.051636 0 70.795636-31.744 70.795636-70.795636s-31.790545-70.749091-70.795636-70.749091c-39.051636 0-70.749091 31.744-70.749091 70.749091z" p-id="28119"></path></svg>
