<svg t="1672125663987" class="icon" viewBox="0 0 1024 1024" version="1.1" xmlns="http://www.w3.org/2000/svg" width="200" height="200"><path d="M860.2 921.6H163.8c-22.5 0-41 18.4-41 41 0 22.5 18.4 41 41 41h696.3c22.5 0 41-18.4 41-41 0-22.5-18.4-41-40.9-41zM803.8 514.9H666.6c7.3-18.2 19-35.8 34.6-51.6 50.5-51.1 78.3-99.4 78.3-171.9 0-80-34.5-155.5-94.7-207C636.1 42.6 575 20.5 511.7 20.5c-18.2 0-36.7 1.8-55.1 5.6-104.2 21.2-187.4 106.8-207.2 212.8-16.7 89.4 10.8 160.9 73.4 224.3 15.6 15.9 27.4 33.4 34.6 51.6H220.2c-53.7 0-97.3 44.7-97.3 99.6v174.7c0 28 21.8 50.6 48.6 50.6h681c26.9 0 48.6-22.6 48.6-50.6V614.5c0-55-43.6-99.6-97.3-99.6z m15.4 242.9H204.8V614.4c0-9.6 7-17.7 15.4-17.7h137.2c27.2 0 52.6-13.5 67.8-36 15.2-22.5 18.3-51.1 8.3-76.3-11.4-28.6-29-55.1-52.4-78.8C334.3 358.2 319 312.8 330 254c13.8-73.7 71.3-133 143-147.6 12.9-2.6 25.9-3.9 38.8-3.9 44.1 0 86.6 15.7 119.9 44.2 42 35.9 66.1 88.7 66.1 144.8 0 44.1-13.8 72.9-54.7 114.3-23.4 23.7-41 50.2-52.4 78.8-10 25.2-6.9 53.8 8.3 76.3 15.2 22.5 40.6 35.9 67.8 35.9h137.3c8.3 0 15.4 8.1 15.4 17.7v143.3z"></path></svg>
