<svg t="1698043499062" class="icon" viewBox="0 0 1024 1024" version="1.1" xmlns="http://www.w3.org/2000/svg" p-id="5007" width="200" height="200"><path d="M769.845045 532.07409l-249.081081 129.153153a21.125766 21.125766 0 0 1-19.483676 0l-249.081081-129.153153a21.162667 21.162667 0 0 0-19.502126 37.546667l268.527856 139.356252a21.125766 21.125766 0 0 0 19.483676 0l268.527855-139.356252a21.162667 21.162667 0 0 0-19.502126-37.546667z" p-id="5008"></path><path d="M769.845045 671.411892l-249.081081 129.153153a21.125766 21.125766 0 0 1-19.483676 0l-249.081081-129.153153A21.144216 21.144216 0 0 0 221.405405 690.176a21.144216 21.144216 0 0 0 11.402379 18.782559l268.527856 139.356252a21.125766 21.125766 0 0 0 19.483675 0l268.527856-139.356252a21.144216 21.144216 0 0 0 11.402379-18.782559 21.144216 21.144216 0 0 0-30.904505-18.764108zM790.989261 400.965189l-14.963315-7.767639-256.608865-133.175352a18.118342 18.118342 0 0 0-16.605405 0L246.129009 393.19755l-14.963315 7.767639A18.099892 18.099892 0 0 0 221.405405 416.98018a18.118342 18.118342 0 0 0 9.760289 16.070343l14.963315 7.749189 256.608865 133.175351a18.118342 18.118342 0 0 0 16.605405 0l256.682667-133.12 14.963315-7.749189A18.118342 18.118342 0 0 0 800.74955 416.98018a18.099892 18.099892 0 0 0-9.760289-16.014991z m-70.222414 20.904361l-201.349766 104.503351a18.118342 18.118342 0 0 1-16.605405 0l-201.423568-104.503351a5.535135 5.535135 0 0 1 0-9.686487l201.349766-104.503351a18.118342 18.118342 0 0 1 16.605405 0l201.423568 104.503351a5.535135 5.535135 0 0 1 0 9.686487z" p-id="5009"></path></svg>
