<svg t="1672123534029" class="icon" viewBox="0 0 1024 1024" version="1.1" xmlns="http://www.w3.org/2000/svg" width="200" height="200"><path d="M608.384 892.074667v-108.757334a15.616 15.616 0 0 1-9.429333 0 25.045333 25.045333 0 0 1-12.330667-13.098666 36.394667 36.394667 0 0 1 1.749333-42.410667 310.613333 310.613333 0 0 0 40.917334-68.821333 23.253333 23.253333 0 0 1 31.317333-15.829334 24.661333 24.661333 0 0 1 15.573333 12.074667 23.04 23.04 0 0 1-0.512 18.730667c-5.418667 12.586667-11.562667 25.6-18.261333 38.4v179.584a24.448 24.448 0 0 1-48.896 0z m81.066667 18.005333a26.069333 26.069333 0 0 1-15.488-6.656 23.509333 23.509333 0 0 1-10.581334-19.498667 27.733333 27.733333 0 0 1 13.269334-18.517333 157.866667 157.866667 0 0 0 20.266666-21.674667 25.258667 25.258667 0 0 1 30.848-10.069333 22.912 22.912 0 0 1 16.085334 12.501333 22.485333 22.485333 0 0 1-4.48 19.754667 280.746667 280.746667 0 0 1-14.762667 18.005333 219.434667 219.434667 0 0 1-18.005333 18.730667 28.714667 28.714667 0 0 1-16.341334 7.424z m127.317333-1.237333a22.357333 22.357333 0 0 1-15.104-12.330667 213.418667 213.418667 0 0 0-8.832-12.330667 398.592 398.592 0 0 0-11.562667-15.232 21.888 21.888 0 0 1-6.656-18.005333 22.954667 22.954667 0 0 1 12.8-15.104 22.570667 22.570667 0 0 1 29.568 4.010667 320 320 0 0 1 26.666667 32.981333 19.541333 19.541333 0 0 1 3.925333 17.493333 24.917333 24.917333 0 0 1-12.074666 13.354667 28.885333 28.885333 0 0 1-15.573334 5.674667 12.8 12.8 0 0 1-3.029333-0.554667z m-648.064-36.48a357.205333 357.205333 0 0 1 279.509333-348.074667 215.296 215.296 0 1 1 229.418667-48.597333 210.816 210.816 0 0 1-75.008 48.597333 372.992 372.992 0 0 1 79.232 27.648 32 32 0 0 1-28.16 57.514667 292.693333 292.693333 0 0 0-421.077333 262.912 32 32 0 1 1-64 0z m204.8-549.077334a151.594667 151.594667 0 1 0 151.509333-151.765333 152.192 152.192 0 0 0-151.210666 151.722667z m312.832 504.405334a24.533333 24.533333 0 1 1 0-49.066667h10.581333v-40.661333h-4.266666a24.192 24.192 0 1 1 0-48.341334h4.266666v-26.922666a24.32 24.32 0 0 1 48.597334 0v26.922666h24.149333v-27.392a22.186667 22.186667 0 0 1 24.661333-24.405333 21.973333 21.973333 0 0 1 24.234667 24.405333v27.434667h10.325333a24.192 24.192 0 0 1 0 48.341333h-10.325333v40.661334h11.562667a24.533333 24.533333 0 1 1 0 49.066666z m59.178667-49.066667h24.149333v-40.661333h-24.149333z"></path></svg>
