<svg xmlns="http://www.w3.org/2000/svg" xmlns:xlink="http://www.w3.org/1999/xlink" fill="none" version="1.1" width="330" height="143.097900390625" viewBox="0 0 330 143.097900390625"><g><g transform="matrix(-0.7071065902709961,0.7071069478988647,0.7071069478988647,0.7071066498756409,398.41183791914955,-165.02764404012123)"><path d="M318.41127734375,1.04492C318.00807734375,0.640769,317.60487734375,0.236694,317.36857734375,0C316.96537734375,0.403977,233.38427734375,83.5043,233.38427734375,84.1355C233.38427734375,84.1355,318.41127734375,1.04492,318.41127734375,1.04492C318.41127734375,1.04492,318.41127734375,1.04492,318.41127734375,1.04492ZM250.49127734375,101.28C251.12117734375,101.28,334.07227734375,17.548,334.47527734375,17.1439C334.13627734375,16.8043,333.73327734375,16.4003,333.33517734375,16.0011C333.33517734375,16.0011,250.49127734375,101.28,250.49127734375,101.28C250.49127734375,101.28,250.49127734375,101.28,250.49127734375,101.28ZM233.38427734375,84.1355C233.38427734375,84.1355,233.38427734375,98.9937,233.38427734375,98.9937C233.38427734375,98.9937,325.92207734375,8.5719,325.92207734375,8.5719C325.92207734375,8.5719,318.41127734375,1.04492,318.41127734375,1.04492C318.41127734375,1.04492,233.38427734375,84.1355,233.38427734375,84.1355C233.38427734375,84.1355,233.38427734375,84.1355,233.38427734375,84.1355ZM235.66520734375,101.28C235.66520734375,101.28,250.49127734375,101.28,250.49127734375,101.28C250.49127734375,101.28,333.33517734375,16.0011,333.33517734375,16.0011C333.33517734375,16.0011,325.92207734375,8.5719,325.92207734375,8.5719C325.92207734375,8.5719,235.66520734375,101.28,235.66520734375,101.28C235.66520734375,101.28,235.66520734375,101.28,235.66520734375,101.28ZM233.38427734375,98.9937C233.38427734375,100.256,234.40548734375,101.28,235.66520734375,101.28C235.66520734375,101.28,325.92207734375,8.5719,325.92207734375,8.5719C325.92207734375,8.5719,325.92207734375,8.5719,325.92207734375,8.5719C325.92207734375,8.5719,233.38427734375,98.9937,233.38427734375,98.9937C233.38427734375,98.9937,233.38427734375,98.9937,233.38427734375,98.9937Z" fill="#7490AC" fill-opacity="0.5299999713897705"/></g><g transform="matrix(-0.7071065902709961,0.7071069478988647,0.7071069478988647,0.7071066498756409,213.85105000385374,-88.58003642744006)"><path d="M200.2491716796875,11.0938801953125C199.8459716796875,10.6897231953125,199.44267167968752,10.2856441953125,199.2064716796875,10.0489501953125C198.8032716796875,10.4529271953125,129.4334716796875,79.3418501953125,129.4334716796875,79.9730501953125C129.4334716796875,79.9730501953125,200.2491716796875,11.0938801953125,200.2491716796875,11.0938801953125C200.2491716796875,11.0938801953125,200.2491716796875,11.0938801953125,200.2491716796875,11.0938801953125ZM146.5404716796875,97.1171501953125C147.1703716796875,97.1171501953125,215.9102716796875,27.5969501953125,216.3134716796875,27.1928501953125C215.9745716796875,26.8532501953125,215.5713716796875,26.4492501953125,215.1730716796875,26.0500501953125C215.1730716796875,26.0500501953125,146.5404716796875,97.1171501953125,146.5404716796875,97.1171501953125C146.5404716796875,97.1171501953125,146.5404716796875,97.1171501953125,146.5404716796875,97.1171501953125ZM129.4334716796875,79.9730501953125C129.4334716796875,79.9730501953125,129.4334716796875,94.8312501953125,129.4334716796875,94.8312501953125C129.4334716796875,94.8312501953125,207.7599716796875,18.6208501953125,207.7599716796875,18.6208501953125C207.7599716796875,18.6208501953125,200.2491716796875,11.0938801953125,200.2491716796875,11.0938801953125C200.2491716796875,11.0938801953125,129.4334716796875,79.9730501953125,129.4334716796875,79.9730501953125C129.4334716796875,79.9730501953125,129.4334716796875,79.9730501953125,129.4334716796875,79.9730501953125ZM131.7144016796875,97.1171501953125C131.7144016796875,97.1171501953125,146.5404716796875,97.1171501953125,146.5404716796875,97.1171501953125C146.5404716796875,97.1171501953125,215.1730716796875,26.0500501953125,215.1730716796875,26.0500501953125C215.1730716796875,26.0500501953125,207.7599716796875,18.6208501953125,207.7599716796875,18.6208501953125C207.7599716796875,18.6208501953125,131.7144016796875,97.1171501953125,131.7144016796875,97.1171501953125C131.7144016796875,97.1171501953125,131.7144016796875,97.1171501953125,131.7144016796875,97.1171501953125ZM129.4334716796875,94.8312501953125C129.4334716796875,96.0937501953125,130.4546816796875,97.1171501953125,131.7144016796875,97.1171501953125C131.7144016796875,97.1171501953125,207.7599716796875,18.6208501953125,207.7599716796875,18.6208501953125C207.7599716796875,18.6208501953125,207.7599716796875,18.6208501953125,207.7599716796875,18.6208501953125C207.7599716796875,18.6208501953125,129.4334716796875,94.8312501953125,129.4334716796875,94.8312501953125C129.4334716796875,94.8312501953125,129.4334716796875,94.8312501953125,129.4334716796875,94.8312501953125Z" fill="#306AA4" fill-opacity="1"/></g><g transform="matrix(-0.7071065902709961,0.7071069478988647,0.7071069478988647,0.7071066498756409,97.76780186542601,-40.49676397031726)"><path d="M132.2491716796875,11.0938801953125C131.8459716796875,10.6897231953125,131.44267167968752,10.2856441953125,131.2064716796875,10.0489501953125C130.8032716796875,10.4529271953125,61.4334716796875,79.3418501953125,61.4334716796875,79.9730501953125C61.4334716796875,79.9730501953125,132.2491716796875,11.0938801953125,132.2491716796875,11.0938801953125C132.2491716796875,11.0938801953125,132.2491716796875,11.0938801953125,132.2491716796875,11.0938801953125ZM78.5404716796875,97.1171501953125C79.17037167968749,97.1171501953125,147.9102716796875,27.5969501953125,148.3134716796875,27.1928501953125C147.9745716796875,26.8532501953125,147.5713716796875,26.4492501953125,147.1730716796875,26.0500501953125C147.1730716796875,26.0500501953125,78.5404716796875,97.1171501953125,78.5404716796875,97.1171501953125C78.5404716796875,97.1171501953125,78.5404716796875,97.1171501953125,78.5404716796875,97.1171501953125ZM61.4334716796875,79.9730501953125C61.4334716796875,79.9730501953125,61.4334716796875,94.8312501953125,61.4334716796875,94.8312501953125C61.4334716796875,94.8312501953125,139.7599716796875,18.6208501953125,139.7599716796875,18.6208501953125C139.7599716796875,18.6208501953125,132.2491716796875,11.0938801953125,132.2491716796875,11.0938801953125C132.2491716796875,11.0938801953125,61.4334716796875,79.9730501953125,61.4334716796875,79.9730501953125C61.4334716796875,79.9730501953125,61.4334716796875,79.9730501953125,61.4334716796875,79.9730501953125ZM63.7144016796875,97.1171501953125C63.7144016796875,97.1171501953125,78.5404716796875,97.1171501953125,78.5404716796875,97.1171501953125C78.5404716796875,97.1171501953125,147.1730716796875,26.0500501953125,147.1730716796875,26.0500501953125C147.1730716796875,26.0500501953125,139.7599716796875,18.6208501953125,139.7599716796875,18.6208501953125C139.7599716796875,18.6208501953125,63.7144016796875,97.1171501953125,63.7144016796875,97.1171501953125C63.7144016796875,97.1171501953125,63.7144016796875,97.1171501953125,63.7144016796875,97.1171501953125ZM61.4334716796875,94.8312501953125C61.4334716796875,96.0937501953125,62.454681679687496,97.1171501953125,63.7144016796875,97.1171501953125C63.7144016796875,97.1171501953125,139.7599716796875,18.6208501953125,139.7599716796875,18.6208501953125C139.7599716796875,18.6208501953125,139.7599716796875,18.6208501953125,139.7599716796875,18.6208501953125C139.7599716796875,18.6208501953125,61.4334716796875,94.8312501953125,61.4334716796875,94.8312501953125C61.4334716796875,94.8312501953125,61.4334716796875,94.8312501953125,61.4334716796875,94.8312501953125Z" fill="#174777" fill-opacity="1"/></g><g><path d="M37.72,67.0249501953125L43.984,67.0249501953125L43.984,74.8369501953125L37.72,74.8369501953125L37.72,80.3809501953125L36.226,80.3809501953125L36.226,74.8369501953125L29.998,74.8369501953125L29.998,67.0249501953125L36.226,67.0249501953125L36.226,63.9109501953125L37.72,63.9109501953125L37.72,67.0249501953125ZM31.474,68.4469501953125L31.474,73.3969501953125L36.226,73.3969501953125L36.226,68.4469501953125L31.474,68.4469501953125ZM37.72,73.3969501953125L42.507999999999996,73.3969501953125L42.507999999999996,68.4469501953125L37.72,68.4469501953125L37.72,73.3969501953125ZM59.572,65.8909501953125Q60.22,66.7909501953125,61.228,68.4199501953125Q62.236,70.0489501953125,62.884,71.2189501953125L61.624,71.9749501953125Q61.228,71.2009501953125,60.868,70.60695019531249L52.516,71.4349501953125L51.436,71.5429501953125L51.022,70.1749501953125Q51.4,70.0129501953125,51.616,69.87795019531251Q51.832,69.7429501953125,52.03,69.52695019531251Q52.804,68.6989501953125,53.992000000000004,66.8989501953125Q55.18,65.0989501953125,55.828,63.784950195312504L57.214,64.3789501953125Q56.403999999999996,65.8549501953125,55.342,67.5109501953125Q54.28,69.1669501953125,53.524,70.0129501953125L60.112,69.3289501953125Q59.068,67.6369501953125,58.42,66.6469501953125L59.572,65.8909501953125ZM49.635999999999996,70.1389501953125Q49.239999999999995,69.1489501953125,48.466,67.5919501953125Q47.692,66.0349501953125,47.188,65.2069501953125L48.466,64.5229501953125Q49.006,65.4049501953125,49.807,66.9169501953125Q50.608000000000004,68.4289501953125,51.058,69.4369501953125L49.635999999999996,70.1389501953125ZM46.954,79.24695019531251Q48.412,75.50295019531251,49.456,72.06495019531249L50.878,72.4789501953125Q49.798,76.0969501953125,48.394,79.7509501953125L46.954,79.24695019531251ZM53.668,80.3629501953125L52.228,80.3629501953125L52.228,72.9649501953125L61.57,72.9649501953125L61.57,80.3629501953125L60.148,80.3629501953125L60.148,79.3729501953125L53.668,79.3729501953125L53.668,80.3629501953125ZM60.148,78.0049501953125L60.148,74.2789501953125L53.668,74.2789501953125L53.668,78.0049501953125L60.148,78.0049501953125ZM67.168,67.1509501953125L67.168,68.8249501953125L65.69200000000001,68.8249501953125L65.69200000000001,65.8009501953125L72.298,65.8009501953125L71.614,64.1629501953125L73.144,63.8929501953125L73.288,64.25295019531251Q73.52199999999999,64.7749501953125,73.936,65.8009501953125L80.30799999999999,65.8009501953125L80.30799999999999,68.8249501953125L78.77799999999999,68.8249501953125L78.77799999999999,67.1509501953125L67.168,67.1509501953125ZM73.648,74.9089501953125L73.648,78.4009501953125L80.668,78.4009501953125L80.668,79.7869501953125L65.29599999999999,79.7869501953125L65.29599999999999,78.4009501953125L72.154,78.4009501953125L72.154,74.9089501953125L66.75399999999999,74.9089501953125L66.75399999999999,73.4689501953125L72.154,73.4689501953125L72.154,71.02095019531251L66.01599999999999,71.02095019531251L66.01599999999999,69.6169501953125L80.00200000000001,69.6169501953125L80.00200000000001,71.02095019531251L73.648,71.02095019531251L73.648,73.4689501953125L79.24600000000001,73.4689501953125L79.24600000000001,74.9089501953125L73.648,74.9089501953125ZM77.482,78.2929501953125L77.26599999999999,77.9869501953125Q76.15,76.4749501953125,75.80799999999999,76.0249501953125L76.924,75.1609501953125Q77.69800000000001,76.1329501953125,78.634,77.4289501953125L77.482,78.2929501953125ZM84.952,67.4389501953125Q84.43,68.4829501953125,83.62,69.6709501953125L82.648,68.5909501953125Q84.03399999999999,66.5929501953125,85.006,63.6949501953125L86.28399999999999,64.0729501953125Q85.852,65.3329501953125,85.54599999999999,66.1249501953125L88.372,66.1249501953125L88.372,67.4389501953125L84.952,67.4389501953125ZM89.25399999999999,64.9369501953125L98.488,64.9369501953125L98.488,78.1309501953125Q98.488,79.24695019531251,98.047,79.7239501953125Q97.606,80.2009501953125,96.562,80.2009501953125Q95.626,80.2009501953125,94.978,80.1109501953125L94.708,78.7429501953125Q95.752,78.8869501953125,96.274,78.8869501953125Q96.814,78.8869501953125,97.003,78.6349501953125Q97.192,78.3829501953125,97.192,77.6629501953125L97.192,66.2689501953125L90.55,66.2689501953125L90.55,80.2549501953125L89.25399999999999,80.2549501953125L89.25399999999999,64.9369501953125ZM95.86,77.33895019531249Q95.41,76.4389501953125,94.06,73.9009501953125Q93.088,75.7549501953125,91.918,77.6089501953125L90.856,76.7809501953125Q92.062,74.9989501953125,93.322,72.53295019531251Q91.792,69.6709501953125,90.91,68.1589501953125L91.99000000000001,67.4929501953125Q92.836,68.9509501953125,94.006,71.1469501953125Q94.96,69.2029501953125,95.626,67.4569501953125L96.778,67.9249501953125Q96.022,69.9589501953125,94.762,72.53295019531251Q95.608,74.0809501953125,96.94,76.6369501953125L95.86,77.33895019531249ZM86.608,70.7329501953125L86.608,72.9109501953125L88.66,72.9109501953125L88.66,74.2249501953125L86.608,74.2249501953125L86.608,77.6269501953125L88.24600000000001,76.4209501953125L88.624,77.8789501953125Q87.328,78.7609501953125,86.446,79.4089501953125Q86.122,79.6249501953125,85.50999999999999,80.1289501953125L84.75399999999999,78.9589501953125Q85.33,78.4729501953125,85.33,78.0049501953125L85.33,74.2249501953125L83.332,74.2249501953125L83.332,72.9109501953125L85.33,72.9109501953125L85.33,70.7329501953125L84.124,70.7329501953125L84.124,69.4009501953125L88.102,69.4009501953125L88.102,70.7329501953125L86.608,70.7329501953125ZM150.058,75.3229501953125L149.752,74.0629501953125Q149.608,73.4509501953125,149.401,72.6229501953125Q149.19400000000002,71.7949501953125,148.95999999999998,70.8769501953125Q148.906,72.7489501953125,148.78,74.5849501953125Q148.654,76.4209501953125,148.51,77.5909501953125Q148.38400000000001,78.5809501953125,148.132,79.1119501953125Q147.88,79.6429501953125,147.40300000000002,79.8769501953125Q146.926,80.1109501953125,146.098,80.1109501953125Q145.036,80.1109501953125,144.298,80.02095019531251L143.974,78.5629501953125Q144.892,78.7249501953125,145.81,78.7249501953125Q146.26,78.7249501953125,146.494,78.5899501953125Q146.728,78.4549501953125,146.85399999999998,78.1039501953125Q146.98000000000002,77.75295019531251,147.088,77.01495019531251Q147.322,75.4309501953125,147.439,73.18995019531249Q147.55599999999998,70.9489501953125,147.574,68.5909501953125L144.676,68.5909501953125L144.676,68.7169501953125Q144.56799999999998,71.7949501953125,144.172,73.7299501953125Q143.776,75.6649501953125,142.876,77.2039501953125Q141.976,78.7429501953125,140.284,80.4529501953125L139.114,79.58895019531249Q140.716,78.0229501953125,141.562,76.5379501953125Q142.40800000000002,75.0529501953125,142.777,73.2619501953125Q143.14600000000002,71.4709501953125,143.29000000000002,68.6449501953125L143.29000000000002,68.5909501953125L140.644,68.5909501953125L140.644,67.1869501953125L143.344,67.1869501953125Q143.38,66.1789501953125,143.416,63.9109501953125L144.784,63.9109501953125Q144.748,66.1429501953125,144.712,67.1869501953125L149.03199999999998,67.1869501953125Q149.03199999999998,69.0589501953125,148.95999999999998,70.8409501953125L150.238,70.4629501953125Q150.70600000000002,72.1369501953125,151.35399999999998,74.9449501953125L150.058,75.3229501953125ZM139.924,68.6989501953125L139.924,70.1209501953125L137.962,70.1209501953125L137.962,80.32695019531249L136.558,80.32695019531249L136.558,70.1209501953125L134.776,70.1209501953125L134.776,68.6989501953125L136.558,68.6989501953125L136.558,63.946950195312496L137.962,63.946950195312496L137.962,68.6989501953125L139.924,68.6989501953125ZM142.12,70.6249501953125Q141.74200000000002,71.8489501953125,141.211,73.20795019531249Q140.68,74.5669501953125,140.176,75.5749501953125L138.88,74.9629501953125Q139.99599999999998,72.9289501953125,140.824,70.2109501953125L142.12,70.6249501953125ZM167.752,67.5289501953125Q167.752,69.7609501953125,167.608,72.5869501953125Q167.464,75.4129501953125,167.23,77.32095019531249Q167.104,78.3469501953125,166.78,78.9409501953125Q166.456,79.5349501953125,165.835,79.8139501953125Q165.214,80.0929501953125,164.17,80.1109501953125Q162.892,80.1289501953125,161.29,79.9849501953125L160.966,78.4549501953125Q162.622,78.6349501953125,163.414,78.6349501953125Q164.35,78.6349501953125,164.791,78.49095019531251Q165.232,78.3469501953125,165.43,77.9239501953125Q165.628,77.5009501953125,165.754,76.58295019531249Q166.168,73.2349501953125,166.168,69.0229501953125L160.426,69.0229501953125Q160.228,72.08295019531249,159.634,73.9549501953125Q159.04,75.82695019531249,157.807,77.2579501953125Q156.574,78.6889501953125,154.19799999999998,80.3809501953125L153.082,79.1569501953125Q155.35,77.5909501953125,156.502,76.3579501953125Q157.654,75.1249501953125,158.212,73.4689501953125Q158.77,71.8129501953125,158.932,69.0229501953125L153.80200000000002,69.0229501953125L153.80200000000002,67.5289501953125L159.004,67.5289501953125Q159.04,66.9529501953125,159.076,65.4409501953125L159.13,63.9109501953125L160.624,63.9109501953125Q160.624,64.59495019531249,160.498,67.5289501953125L167.752,67.5289501953125ZM214.768,74.4229501953125L210.682,74.4229501953125L210.682,78.1669501953125Q210.682,79.3009501953125,210.259,79.7509501953125Q209.836,80.2009501953125,208.702,80.2009501953125Q207.658,80.2009501953125,206.632,80.0929501953125L206.362,78.7429501953125Q207.46,78.9049501953125,208.216,78.9049501953125Q208.828,78.9049501953125,209.053,78.5899501953125Q209.278,78.2749501953125,209.278,77.6089501953125L209.278,74.4229501953125L204.922,74.4229501953125L204.922,67.8889501953125L208.306,67.8889501953125L208.882,66.1609501953125L203.104,66.1609501953125L203.104,70.7689501953125Q203.104,73.27095019531251,202.933,74.9179501953125Q202.762,76.56495019531249,202.348,77.8609501953125Q201.934,79.1569501953125,201.142,80.5429501953125L199.828,79.57095019531249Q200.602,78.1669501953125,200.989,77.0509501953125Q201.376,75.9349501953125,201.52,74.5399501953125Q201.664,73.1449501953125,201.664,70.8229501953125L201.664,64.7929501953125L216.154,64.7929501953125L216.154,66.1609501953125L210.286,66.1609501953125Q210.034,67.0789501953125,209.746,67.8889501953125L214.768,67.8889501953125L214.768,74.4229501953125ZM213.454,70.5529501953125L213.454,69.07695019531249L206.254,69.07695019531249L206.254,70.5529501953125L213.454,70.5529501953125ZM213.454,71.74095019531251L206.254,71.74095019531251L206.254,73.2349501953125L213.454,73.2349501953125L213.454,71.74095019531251ZM207.298,75.7549501953125Q206.758,76.6729501953125,205.858,77.8519501953125Q204.958,79.0309501953125,204.058,80.0569501953125L202.978,79.0489501953125Q203.914,78.09495019531249,204.751,77.0239501953125Q205.588,75.9529501953125,206.128,75.0169501953125L207.298,75.7549501953125ZM212.932,75.1429501953125Q214.48,76.8349501953125,216.28,78.8869501953125L215.182,79.7869501953125Q214.318,78.7429501953125,211.888,75.9709501953125L212.932,75.1429501953125ZM234.352,73.7749501953125L234.46,75.2149501953125L232.012,75.52095019531251L232.012,80.3809501953125L230.662,80.3809501953125L230.662,75.6829501953125L225.712,76.2949501953125L225.64,74.8729501953125L230.662,74.2429501953125L230.662,64.0189501953125L232.012,64.0189501953125L232.012,74.0629501953125L234.352,73.7749501953125ZM222.382,72.9829501953125Q224.164,74.5669501953125,225.19,75.7009501953125L224.236,76.6909501953125Q223.39,75.6649501953125,222.382,74.6569501953125L222.382,80.4889501953125L221.014,80.4889501953125L221.014,73.3069501953125Q220.582,74.4769501953125,219.997,75.5659501953125Q219.412,76.6549501953125,218.476,78.0409501953125L217.648,76.7989501953125Q219.448,74.4229501953125,220.492,71.8669501953125L217.954,71.8669501953125L217.954,70.4989501953125L221.014,70.4989501953125L221.014,64.1449501953125L222.382,64.1449501953125L222.382,70.4989501953125L225.136,70.4989501953125L225.136,71.8669501953125L222.382,71.8669501953125L222.382,72.9829501953125ZM222.706,69.2389501953125Q223.066,68.5009501953125,223.516,67.3579501953125Q223.966,66.2149501953125,224.236,65.4229501953125L225.424,65.8189501953125Q225.172,66.5389501953125,224.686,67.7359501953125Q224.2,68.9329501953125,223.84,69.6889501953125L222.706,69.2389501953125ZM229.33,69.1669501953125Q228.736,68.5729501953125,227.782,67.7359501953125Q226.828,66.8989501953125,226.27,66.4489501953125L227.152,65.4229501953125Q227.764,65.9089501953125,228.682,66.6829501953125Q229.6,67.4569501953125,230.248,68.0689501953125L229.33,69.1669501953125ZM219.412,69.6169501953125Q219.16,68.7889501953125,218.746,67.6549501953125Q218.332,66.5209501953125,218.044,65.8729501953125L219.214,65.4409501953125Q219.502,66.10695019531249,219.925,67.23195019531249Q220.348,68.35695019531249,220.618,69.2209501953125L219.412,69.6169501953125ZM228.862,73.4689501953125Q228.232,72.8749501953125,227.242,72.0289501953125Q226.252,71.1829501953125,225.658,70.7329501953125L226.522,69.6709501953125Q227.17,70.1389501953125,228.142,70.95795019531249Q229.114,71.77695019531251,229.78,72.4069501953125L228.862,73.4689501953125ZM251.92,80.5249501953125Q249.436,79.3009501953125,247.96,77.9149501953125Q246.556,79.26495019531251,244.144,80.5249501953125L243.316,79.26495019531251Q245.656,78.09495019531249,246.97,76.8889501953125Q246.196,75.9529501953125,245.638,74.8279501953125Q245.08,73.7029501953125,244.648,72.3169501953125L244.216,72.3169501953125Q244.198,74.1889501953125,244.045,75.47595019531249Q243.892,76.7629501953125,243.496,77.9329501953125Q243.1,79.1029501953125,242.344,80.4889501953125L241.156,79.7689501953125Q241.912,78.49095019531251,242.281,77.33895019531249Q242.65,76.1869501953125,242.767,74.8009501953125Q242.884,73.4149501953125,242.884,71.0569501953125L242.884,66.2869501953125L246.736,66.2869501953125L246.736,63.9649501953125L248.086,63.9649501953125L248.086,66.2869501953125L251.974,66.2869501953125L251.974,67.6189501953125L251.092,69.7609501953125L249.85,69.4009501953125L250.606,67.6549501953125L248.086,67.6549501953125L248.086,70.9309501953125L251.146,70.9309501953125L251.146,72.2449501953125Q250.642,73.7929501953125,250.129,74.8819501953125Q249.616,75.9709501953125,248.878,76.8889501953125Q250.39,78.2029501953125,252.64,79.2289501953125L251.92,80.5249501953125ZM241.39,78.4369501953125L237.394,78.4369501953125L237.394,73.1809501953125Q236.89,74.0629501953125,236.44,74.6929501953125L235.738,73.4689501953125Q236.62,72.08295019531249,237.322,70.3189501953125Q238.024,68.5549501953125,238.384,66.7909501953125L236.242,66.7909501953125L236.242,65.4409501953125L242.002,65.4409501953125L242.002,66.7909501953125L239.662,66.7909501953125Q239.266,68.7169501953125,238.672,70.3729501953125L241.39,70.3729501953125L241.39,78.4369501953125ZM246.736,70.9309501953125L246.736,67.6549501953125L244.216,67.6549501953125L244.216,70.9309501953125L246.736,70.9309501953125ZM238.6,77.0509501953125L240.184,77.0509501953125L240.184,71.75895019531251L238.6,71.75895019531251L238.6,77.0509501953125ZM245.962,72.3169501953125Q246.664,74.4589501953125,247.906,75.8989501953125Q248.5,75.1609501953125,248.914,74.2969501953125Q249.328,73.4329501953125,249.67,72.3169501953125L245.962,72.3169501953125ZM260.43399999999997,72.6229501953125Q261.13599999999997,71.5609501953125,261.64,70.3099501953125Q262.144,69.0589501953125,262.486,67.2769501953125L260.812,67.2769501953125L260.812,65.9089501953125L264.772,65.9089501953125Q264.394,64.9549501953125,263.962,64.0729501953125L265.276,63.7489501953125Q265.672,64.6129501953125,266.212,65.9089501953125L269.956,65.9089501953125L269.956,67.2769501953125L268.35400000000004,67.2769501953125Q268.12,68.6089501953125,267.85,69.49095019531251Q269.416,71.32695019531249,270.1,72.2089501953125L269.164,73.0549501953125Q268.51599999999996,72.2089501953125,267.76,71.3089501953125L267.382,70.8409501953125Q266.914,71.9209501953125,266.212,72.9829501953125L265.168,72.2449501953125Q265.924,71.0929501953125,266.38300000000004,69.9859501953125Q266.842,68.8789501953125,267.13,67.2769501953125L263.85400000000004,67.2769501953125Q263.63800000000003,68.5189501953125,263.278,69.6349501953125Q263.926,70.3009501953125,265.024,71.5069501953125L264.08799999999997,72.4429501953125Q263.35,71.5609501953125,262.79200000000003,70.9489501953125Q262.30600000000004,72.1369501953125,261.46000000000004,73.4149501953125L260.43399999999997,72.6229501953125ZM254.404,66.7729501953125L254.404,65.4049501953125L260.344,65.4049501953125L260.344,66.7729501953125L258.058,66.7729501953125Q257.572,68.7169501953125,256.852,70.4089501953125L259.73199999999997,70.4089501953125L259.73199999999997,79.2289501953125L255.484,79.2289501953125L255.484,73.1629501953125Q254.926,74.1169501953125,254.386,74.8909501953125L253.756,73.5049501953125Q254.692,72.1729501953125,255.448,70.3819501953125Q256.204,68.5909501953125,256.654,66.7729501953125L254.404,66.7729501953125ZM256.69,77.8609501953125L258.544,77.8609501953125L258.544,71.7949501953125L256.69,71.7949501953125L256.69,77.8609501953125ZM265.978,75.08895019531249L270.406,75.08895019531249L270.406,76.4749501953125L265.978,76.4749501953125L265.978,80.4169501953125L264.592,80.4169501953125L264.592,76.4749501953125L260.38,76.4749501953125L260.38,75.08895019531249L264.592,75.08895019531249L264.592,73.3429501953125L265.978,73.3429501953125L265.978,75.08895019531249ZM279.658,67.2949501953125Q279.31600000000003,68.9869501953125,278.938,70.3369501953125L281.24199999999996,70.3369501953125L281.24199999999996,71.7229501953125L271.954,71.7229501953125L271.954,70.3369501953125L274.402,70.3369501953125Q274.006,68.2489501953125,273.736,67.2949501953125L272.476,67.2949501953125L272.476,65.9629501953125L276.094,65.9629501953125Q275.914,65.1349501953125,275.554,64.0729501953125L276.95799999999997,63.784950195312504Q277.3,64.8469501953125,277.534,65.9629501953125L280.9,65.9629501953125L280.9,67.2949501953125L279.658,67.2949501953125ZM286.444,71.00295019531251Q287.398,72.2629501953125,287.785,73.20795019531249Q288.172,74.1529501953125,288.172,75.2329501953125Q288.172,76.8349501953125,287.515,77.4919501953125Q286.858,78.1489501953125,285.364,78.1489501953125Q284.824,78.1489501953125,284.284,78.09495019531249L283.978,76.7269501953125Q284.608,76.8169501953125,285.094,76.8169501953125Q285.994,76.8169501953125,286.399,76.4209501953125Q286.804,76.0249501953125,286.804,74.9989501953125Q286.804,74.1349501953125,286.381,73.25295019531251Q285.958,72.3709501953125,285.022,71.2729501953125L286.498,66.4129501953125L283.528,66.4129501953125L283.528,80.3989501953125L282.124,80.3989501953125L282.124,65.0269501953125L287.974,65.0269501953125L287.974,66.4309501953125L286.444,71.00295019531251ZM275.086,67.2949501953125Q275.536,69.1129501953125,275.77,70.3369501953125L277.58799999999997,70.3369501953125Q278.002,68.8249501953125,278.326,67.2949501953125L275.086,67.2949501953125ZM280.16200000000003,79.6969501953125L273.142,79.6969501953125L273.142,73.4869501953125L280.16200000000003,73.4869501953125L280.16200000000003,79.6969501953125ZM278.812,74.8369501953125L274.49199999999996,74.8369501953125L274.49199999999996,78.3469501953125L278.812,78.3469501953125L278.812,74.8369501953125Z" fill="#FFFFFF" fill-opacity="0.8999999761581421"/></g><g transform="matrix(-0.7071065902709961,0.7071069478988647,0.7071069478988647,0.7071066498756409,469.1280114207111,-194.3192546516184)"><path d="M301.22488,59.38995123046875C301.22488,58.70653223046875,301.22484,58.50610323046875,301.22488,57.79901123046875C300.7829,58.24096723046875,299.722321,59.30158123046875,299.103546,59.92029123046875C299.103546,59.92029123046875,301.22488,59.38995123046875,301.22488,59.38995123046875C301.22488,59.38995123046875,301.22488,59.38995123046875,301.22488,59.38995123046875ZM315.7205,77.95161123046876Q316.0741,77.59811123046875,317.1347,76.53731123046875Q317.9302,75.74201123046875,318.1954,75.47671123046875C318.1954,75.47671123046875,315.7205,77.95161123046876,315.7205,77.95161123046876C315.7205,77.95161123046876,315.7205,77.95161123046876,315.7205,77.95161123046876ZM299.103546,59.92029123046875C299.103546,59.92029123046875,298.75,75.47661123046875,298.75,75.47661123046875C298.75,75.47661123046875,301.22488,75.47661123046875,301.22488,75.47661123046875C301.22488,75.47661123046875,301.22488,59.38995123046875,301.22488,59.38995123046875C301.22488,59.38995123046875,299.103546,59.92029123046875,299.103546,59.92029123046875C299.103546,59.92029123046875,299.103546,59.92029123046875,299.103546,59.92029123046875ZM301.22488,77.95151123046875C301.22488,77.95151123046875,315.7205,77.95161123046876,315.7205,77.95161123046876C315.7205,77.95161123046876,318.1954,75.47671123046875,318.1954,75.47671123046875C318.1954,75.47671123046875,301.22488,75.47661123046875,301.22488,75.47661123046875C301.22488,75.47661123046875,301.22488,77.95151123046875,301.22488,77.95151123046875C301.22488,77.95151123046875,301.22488,77.95151123046875,301.22488,77.95151123046875ZM298.75,75.47661123046875C298.75,76.84351123046875,299.85804,77.95151123046875,301.22488,77.95151123046875C301.22488,77.95151123046875,301.22488,75.47661123046875,301.22488,75.47661123046875C301.22488,75.47661123046875,301.22488,75.47661123046875,301.22488,75.47661123046875C301.22488,75.47661123046875,298.75,75.47661123046875,298.75,75.47661123046875C298.75,75.47661123046875,298.75,75.47661123046875,298.75,75.47661123046875Z" fill="#62686D" fill-opacity="1"/></g><g transform="matrix(-0.7071065902709961,0.7071069478988647,0.7071069478988647,0.7071066498756409,484.4919707331501,-200.68321718270818)"><path d="M310.22488,59.38995123046875C310.22488,58.70653223046875,310.22484,58.50610323046875,310.22488,57.79901123046875C309.7829,58.24096723046875,308.722321,59.30158123046875,308.103546,59.92029123046875C308.103546,59.92029123046875,310.22488,59.38995123046875,310.22488,59.38995123046875C310.22488,59.38995123046875,310.22488,59.38995123046875,310.22488,59.38995123046875ZM324.7205,77.95161123046876Q325.0741,77.59811123046875,326.1347,76.53731123046875Q326.9302,75.74201123046875,327.1954,75.47671123046875C327.1954,75.47671123046875,324.7205,77.95161123046876,324.7205,77.95161123046876C324.7205,77.95161123046876,324.7205,77.95161123046876,324.7205,77.95161123046876ZM308.103546,59.92029123046875C308.103546,59.92029123046875,307.75,75.47661123046875,307.75,75.47661123046875C307.75,75.47661123046875,310.22488,75.47661123046875,310.22488,75.47661123046875C310.22488,75.47661123046875,310.22488,59.38995123046875,310.22488,59.38995123046875C310.22488,59.38995123046875,308.103546,59.92029123046875,308.103546,59.92029123046875C308.103546,59.92029123046875,308.103546,59.92029123046875,308.103546,59.92029123046875ZM310.22488,77.95151123046875C310.22488,77.95151123046875,324.7205,77.95161123046876,324.7205,77.95161123046876C324.7205,77.95161123046876,327.1954,75.47671123046875,327.1954,75.47671123046875C327.1954,75.47671123046875,310.22488,75.47661123046875,310.22488,75.47661123046875C310.22488,75.47661123046875,310.22488,77.95151123046875,310.22488,77.95151123046875C310.22488,77.95151123046875,310.22488,77.95151123046875,310.22488,77.95151123046875ZM307.75,75.47661123046875C307.75,76.84351123046875,308.85804,77.95151123046875,310.22488,77.95151123046875C310.22488,77.95151123046875,310.22488,75.47661123046875,310.22488,75.47661123046875C310.22488,75.47661123046875,310.22488,75.47661123046875,310.22488,75.47661123046875C310.22488,75.47661123046875,307.75,75.47661123046875,307.75,75.47661123046875C307.75,75.47661123046875,307.75,75.47661123046875,307.75,75.47661123046875Z" fill="#62686D" fill-opacity="0.6000000238418579"/></g><g transform="matrix(-0.7071065902709961,0.7071069478988647,0.7071069478988647,0.7071066498756409,498.14882345531805,-206.3400727658991)"><path d="M318.22488,59.38995123046875C318.22488,58.70653223046875,318.22484,58.50610323046875,318.22488,57.79901123046875C317.7829,58.24096723046875,316.722321,59.30158123046875,316.103546,59.92029123046875C316.103546,59.92029123046875,318.22488,59.38995123046875,318.22488,59.38995123046875C318.22488,59.38995123046875,318.22488,59.38995123046875,318.22488,59.38995123046875ZM332.7205,77.95161123046876Q333.0741,77.59811123046875,334.1347,76.53731123046875Q334.9302,75.74201123046875,335.1954,75.47671123046875C335.1954,75.47671123046875,332.7205,77.95161123046876,332.7205,77.95161123046876C332.7205,77.95161123046876,332.7205,77.95161123046876,332.7205,77.95161123046876ZM316.103546,59.92029123046875C316.103546,59.92029123046875,315.75,75.47661123046875,315.75,75.47661123046875C315.75,75.47661123046875,318.22488,75.47661123046875,318.22488,75.47661123046875C318.22488,75.47661123046875,318.22488,59.38995123046875,318.22488,59.38995123046875C318.22488,59.38995123046875,316.103546,59.92029123046875,316.103546,59.92029123046875C316.103546,59.92029123046875,316.103546,59.92029123046875,316.103546,59.92029123046875ZM318.22488,77.95151123046875C318.22488,77.95151123046875,332.7205,77.95161123046876,332.7205,77.95161123046876C332.7205,77.95161123046876,335.1954,75.47671123046875,335.1954,75.47671123046875C335.1954,75.47671123046875,318.22488,75.47661123046875,318.22488,75.47661123046875C318.22488,75.47661123046875,318.22488,77.95151123046875,318.22488,77.95151123046875C318.22488,77.95151123046875,318.22488,77.95151123046875,318.22488,77.95151123046875ZM315.75,75.47661123046875C315.75,76.84351123046875,316.85804,77.95151123046875,318.22488,77.95151123046875C318.22488,77.95151123046875,318.22488,75.47661123046875,318.22488,75.47661123046875C318.22488,75.47661123046875,318.22488,75.47661123046875,318.22488,75.47661123046875C318.22488,75.47661123046875,315.75,75.47661123046875,315.75,75.47661123046875C315.75,75.47661123046875,315.75,75.47661123046875,315.75,75.47661123046875Z" fill="#62686D" fill-opacity="0.30000001192092896"/></g></g></svg>
