<svg xmlns="http://www.w3.org/2000/svg" xmlns:xlink="http://www.w3.org/1999/xlink" fill="none" version="1.1" width="37" height="32.38971710205078" viewBox="0 0 37 32.38971710205078"><g><path d="M16.1216,0.621668C16.8476,0.21411,17.6668,0,18.5,0C19.3332,0,20.1523,0.21411,20.8784,0.621668C21.6045,1.02923,22.2129,1.61649,22.645,2.32677C22.645,2.32677,22.6497,2.33441,22.6497,2.33441C22.6497,2.33441,36.3372,25.1169,36.3372,25.1169C36.3372,25.1169,36.3503,25.1391,36.3503,25.1391C36.7737,25.87,36.9977,26.6986,36.9999,27.5427C37.0024,28.3867,36.7831,29.2166,36.3639,29.9499C35.9447,30.6831,35.3401,31.2941,34.6105,31.7222C33.8811,32.1501,33.0517,32.3802,32.2053,32.3895C32.2053,32.3895,32.1875,32.3897,32.1875,32.3897C32.1875,32.3897,4.79472,32.3895,4.79472,32.3895C3.94824,32.3804,3.11898,32.1501,2.3894,31.7222C1.65983,31.2941,1.05536,30.6831,0.636167,29.9499C0.216972,29.2166,-0.00235117,28.3867,0.0000190084,27.5427C0.00238927,26.6986,0.226371,25.87,0.649677,25.1391C0.649677,25.1391,0.662806,25.1169,0.662806,25.1169C0.662806,25.1169,14.3549,2.32676,14.3549,2.32676C14.7871,1.61647,15.3955,1.02923,16.1216,0.621668C16.1216,0.621668,16.1216,0.621668,16.1216,0.621668ZM18.5,3.22241C18.2223,3.22241,17.9492,3.29378,17.7072,3.42962C17.4662,3.56487,17.2642,3.75947,17.1202,3.99479Q17.1202,3.99479,10.2817,15.3773Q3.44323,26.7598,3.44323,26.7598C3.30558,27.0012,3.23279,27.274,3.232,27.5517C3.23122,27.8331,3.30432,28.1097,3.44405,28.3541C3.58379,28.5985,3.78527,28.8022,4.02846,28.9448C4.26954,29.0863,4.54324,29.1628,4.82282,29.1671C4.82282,29.1671,32.1771,29.1671,32.1771,29.1671C32.4567,29.1628,32.7305,29.0863,32.9716,28.9448C33.2148,28.8022,33.4161,28.5985,33.5559,28.3541C33.6957,28.1097,33.7687,27.8331,33.7679,27.5517C33.7673,27.274,33.6944,27.0012,33.5569,26.7598C33.5569,26.7598,19.8817,3.99799,19.8817,3.99799C19.881,3.99693,19.8804,3.99585,19.8797,3.99479C19.7357,3.75947,19.5337,3.56487,19.2928,3.42962C19.0509,3.29378,18.7778,3.22241,18.5,3.22241C18.5,3.22241,18.5,3.22241,18.5,3.22241ZM18.5,9.83276C19.3925,9.83276,20.116,10.5541,20.116,11.444C20.116,11.444,20.116,17.8887,20.116,17.8887C20.116,18.7786,19.3925,19.4999,18.5,19.4999C17.6075,19.4999,16.884,18.7786,16.884,17.8887C16.884,17.8887,16.884,11.444,16.884,11.444C16.884,10.5541,17.6075,9.83276,18.5,9.83276C18.5,9.83276,18.5,9.83276,18.5,9.83276ZM16.884,24.3335C16.884,23.4438,17.6075,22.7223,18.5,22.7223C18.5,22.7223,18.5161,22.7223,18.5161,22.7223C19.4086,22.7223,20.1321,23.4438,20.1321,24.3335C20.1321,25.2234,19.4086,25.9447,18.5161,25.9447C18.5161,25.9447,18.5,25.9447,18.5,25.9447C17.6075,25.9447,16.884,25.2234,16.884,24.3335C16.884,24.3335,16.884,24.3335,16.884,24.3335Z" fill-rule="evenodd" fill="#C50101" fill-opacity="1"/></g></svg>
